<?xml version="1.0" encoding="UTF-8"?>
<svg width="149px" height="146px" viewBox="0 0 149 146" version="1.1" xmlns="http://www.w3.org/2000/svg" xmlns:xlink="http://www.w3.org/1999/xlink">
    <!-- Generator: Sketch 42 (36781) - http://www.bohemiancoding.com/sketch -->
    <title>Group 4</title>
    <desc>Created with Sketch.</desc>
    <defs>
        <path d="M27.7750633,13.4858482 C26.7044786,14.4555781 25.2082123,14.9348406 23.7909979,14.9355911 C22.1569345,16.2680047 19.7463014,17.4888254 17.3837555,17.8667079 C15.0084428,18.2445905 13.1153109,18.0175445 11.6336928,17.1774746 C11.120053,16.847923 10.6154878,16.6771694 10.0973405,16.6000757 C9.84885218,16.5940979 8.76746062,16.7208898 8.54691464,16.7332205 C8.38306621,17.5110202 7.87313039,18.2747469 6.95485817,18.9877836 C5.01644044,20.4708999 2.29853962,20.8896346 0.842574498,19.9375965 C-0.592819125,18.9855584 -0.144188713,17.0655328 1.8074887,15.5824165 C3.06283741,14.6126866 4.66894385,14.1049027 5.97860106,14.1428866 L16.2878069,5.44383903 C16.0722454,4.49316807 16.5067414,3.28966397 17.5541269,2.31993407 C19.1242782,0.836817757 21.389373,0.399774589 22.7779621,1.35181269 C24.1871228,2.3038508 24.1121468,4.2238764 22.5551839,5.70699271 C21.4856214,6.70524408 20.0589561,7.18450656 18.8120516,7.14652257 L11.5020054,13.4497669 C12.6545589,13.4898686 13.702839,13.8679925 14.8419713,14.5534996 C15.5618115,14.9643804 16.4720506,15.0921641 17.6639987,14.8981163 C18.8235406,14.68576 19.8128126,14.2698935 20.632526,13.6036867 L21.0899498,13.2043861 C20.8286335,12.2537152 21.2484978,11.0502111 22.3277523,10.0804812 C23.9466446,8.59736484 26.3689324,8.1786301 27.8749209,9.1306682 C29.401481,10.0827063 29.3806958,12.0027319 27.7750633,13.4858482 Z M21.7447921,2.44372384 C20.9391942,1.89447109 19.4690993,2.1600102 18.5601224,3.01565422 C17.6383731,3.87129825 17.5258308,5.08887546 18.336035,5.63812821 C19.1530863,6.18738097 20.6719245,5.92184186 21.5890675,5.06619783 C22.493438,4.21055381 22.5844364,3.01128502 21.7447921,2.44372384 Z M2.31759407,18.8720892 C3.15372874,19.4213419 4.79479173,19.1660159 5.97500259,18.3001588 C7.07691975,17.4445148 7.29538679,16.2269376 6.46385847,15.6776848 C5.63917716,15.1284321 3.98133627,15.3939712 2.87481277,16.2496152 C1.75551686,17.1052592 1.46078142,18.304528 2.31759407,18.8720892 Z M23.23931,13.3803669 C24.1236353,13.9296196 25.7251837,13.6640805 26.6704875,12.8084365 C27.6030189,11.9527925 27.6329199,10.7352153 26.753201,10.1859625 C25.8803291,9.63670975 24.3275241,9.90224886 23.3903863,10.7578929 C22.4404761,11.6135369 22.3327005,12.8128057 23.23931,13.3803669 Z" id="path-1"></path>
    </defs>
    <g id="Page-1" stroke="none" stroke-width="1" fill="none" fill-rule="evenodd">
        <g id="Artboard" transform="translate(-17.000000, -29.000000)">
            <g id="Group-4" transform="translate(19.000000, 30.000000)">
                <g id="Group-3">
                    <polygon id="polygon12" stroke="#394D54" stroke-width="4" stroke-linejoin="round" fill="#BFF2FF" fill-rule="nonzero" points="45.9532056 92.9146341 0 116.578604 45.9532056 142.523412 91.9064113 116.578604"></polygon>
                    <polygon id="polygon12" stroke="#394D54" stroke-width="4" stroke-linejoin="round" fill="#BFF2FF" fill-rule="nonzero" points="48.9532056 79.9146341 3 103.578604 48.9532056 129.523412 94.9064113 103.578604"></polygon>
                    <polygon id="polygon12" stroke="#394D54" stroke-width="4" stroke-linejoin="round" fill="#BFF2FF" fill-rule="nonzero" points="52.9532056 67.9146341 7 91.5786045 52.9532056 117.523412 98.9064113 91.5786045"></polygon>
                    <polygon id="polygon12" stroke="#394D54" stroke-width="4" stroke-linejoin="round" fill="#BFF2FF" fill-rule="nonzero" points="55.9532056 54.9146341 10 78.5786045 55.9532056 104.523412 101.906411 78.5786045"></polygon>
                    <polygon id="polygon12" stroke="#394D54" stroke-width="4" stroke-linejoin="round" fill="#BFF2FF" fill-rule="nonzero" points="59.9532056 41.9146341 14 65.5786045 59.9532056 91.5234116 105.906411 65.5786045"></polygon>
                    <polygon id="Polygon" stroke="#394D54" stroke-width="4" stroke-linejoin="round" fill="#D8D8D8" points="82.9487298 1 144.39746 32.2230216 144.39746 107 82.9487298 141 21.5 107 21.5 32.2230216"></polygon>
                    <polygon id="polygon18" stroke="#394D54" stroke-width="1.87181478" stroke-linejoin="round" fill="#0EACD1" fill-rule="nonzero" points="143.937947 31.6662151 143.937947 106.381594 83 72.9842927 83 0"></polygon>
                    <polygon id="polygon32" fill="#000000" fill-rule="nonzero" opacity="0.05" points="142.272927 34.6794288 94.7900791 77.6976303 84 71.8034921 84 1.96330275 142.272927 32.2643522"></polygon>
                </g>
                <polygon id="polygon10" stroke="#394D54" stroke-width="1.87181478" stroke-linejoin="round" fill="#20C2EF" fill-rule="nonzero" points="22 31.6662151 22 106.381594 83 72.9842927 83 0"></polygon>
                <g id="Group-5" transform="translate(0.000000, 2.000000)">
                    <polygon id="polygon12" stroke="#394D54" stroke-width="1.87181478" stroke-linejoin="round" fill="#0DA3C6" fill-rule="nonzero" points="82.9379466 73.2195122 22 104.435813 82.9379466 138.660878 143.875893 104.435813"></polygon>
                    <polygon id="polygon14" fill="#20C2EF" fill-rule="nonzero" opacity="0.3" points="25 104.99406 82.7827152 75.3414634 140.573555 104.939299 138.095412 106.344809 82.7827152 78.0094974 27.5350186 106.311344"></polygon>
                    <g id="Group" transform="translate(0.000000, 40.000000)">
                        <g id="Group-9" transform="translate(0.000000, 50.000000)" fill-rule="nonzero">
                            <polygon id="polygon12" stroke="#394D54" stroke-width="1.87181478" stroke-linejoin="round" fill="#BFF2FF" points="45.9532056 0.914634146 0 24.5786045 45.9532056 50.5234116 91.9064113 24.5786045"></polygon>
                            <polygon id="polygon14" fill="#FFFFFF" opacity="0.3" points="2.26229508 25.001791 45.8361459 2.52321007 89.4161237 24.9602793 87.54736 26.025746 45.8361459 4.54575193 4.17394844 26.0003778"></polygon>
                        </g>
                        <g id="Group-9" transform="translate(3.000000, 37.000000)" fill-rule="nonzero">
                            <polygon id="polygon12" stroke="#394D54" stroke-width="1.87181478" stroke-linejoin="round" fill="#BFF2FF" points="45.9532056 0.914634146 0 24.5786045 45.9532056 50.5234116 91.9064113 24.5786045"></polygon>
                            <polygon id="polygon14" fill="#FFFFFF" opacity="0.3" points="2.26229508 25.001791 45.8361459 2.52321007 89.4161237 24.9602793 87.54736 26.025746 45.8361459 4.54575193 4.17394844 26.0003778"></polygon>
                        </g>
                        <g id="Group-8" transform="translate(7.000000, 25.000000)" fill-rule="nonzero">
                            <polygon id="polygon12" stroke="#394D54" stroke-width="1.87181478" stroke-linejoin="round" fill="#BFF2FF" points="45.9532056 0.609756098 0 24.2737264 45.9532056 50.2185336 91.9064113 24.2737264"></polygon>
                            <polygon id="polygon14" fill="#FFFFFF" opacity="0.3" points="2.26229508 24.6969129 45.8361459 2.21833202 89.4161237 24.6554012 87.54736 25.720868 45.8361459 4.24087388 4.17394844 25.6954997"></polygon>
                        </g>
                        <g id="Group-7" transform="translate(10.000000, 13.000000)" fill-rule="nonzero">
                            <polygon id="polygon12" stroke="#394D54" stroke-width="1.87181478" stroke-linejoin="round" fill="#BFF2FF" points="45.9532056 0 0 23.6639703 45.9532056 49.6087775 91.9064113 23.6639703"></polygon>
                            <polygon id="polygon14" fill="#FFFFFF" opacity="0.3" points="2.26229508 24.0871568 45.8361459 1.60857592 89.4161237 24.0456452 87.54736 25.1111119 45.8361459 3.63111778 4.17394844 25.0857436"></polygon>
                        </g>
                        <g id="Group-6" transform="translate(14.000000, 0.000000)" fill-rule="nonzero">
                            <polygon id="polygon12" stroke="#394D54" stroke-width="1.87181478" stroke-linejoin="round" fill="#BFF2FF" points="45.9532056 0 0 23.6639703 45.9532056 49.6087775 91.9064113 23.6639703"></polygon>
                            <polygon id="polygon14" fill="#FFFFFF" opacity="0.3" points="2.26229508 24.0871568 45.8361459 1.60857592 89.4161237 24.0456452 87.54736 25.1111119 45.8361459 3.63111778 4.17394844 25.0857436"></polygon>
                        </g>
                        <g id="XMLID_7_" transform="translate(42.180154, 20.055505) rotate(12.000000) translate(-42.180154, -20.055505) translate(27.680154, 9.555505)">
                            <mask id="mask-2" fill="white">
                                <use xlink:href="#path-1"></use>
                            </mask>
                            <use id="Mask" stroke="#394D54" fill="#384F57" fill-rule="nonzero" xlink:href="#path-1"></use>
                        </g>
                    </g>
                    <polygon id="polygon12" stroke="#394D54" stroke-width="1.87181478" stroke-linejoin="round" fill="#20C2EF" fill-rule="nonzero" points="82.9379466 7.10542736e-15 22 29.6788762 82.9379466 62.218332 143.875893 29.6788762"></polygon>
                    <polygon id="polygon14" fill="#20C2EF" fill-rule="nonzero" opacity="0.3" points="25 29.9940595 82.7827152 0.341463415 140.573555 29.9392994 138.095412 31.3448087 82.7827152 3.00949735 27.5350186 31.3113442"></polygon>
                </g>
                <g id="Group-2" transform="translate(83.000000, 32.000000)" fill-rule="nonzero">
                    <polygon id="polygon10" stroke="#394D54" stroke-width="1.87181478" stroke-linejoin="round" fill="#20C2EF" points="0 32.258107 0 108.370035 60.9379466 74.348485 60.9379466 0"></polygon>
                    <polygon id="polygon20" stroke="#394D54" stroke-width="0.935907389" stroke-linejoin="round" fill="#0EACD1" points="50.1798443 17 43 21.0172096 43 75.1018687 50.1798443 71.0932612"></polygon>
                    <polygon id="polygon22" stroke="#394D54" stroke-width="0.935907389" stroke-linejoin="round" fill="#0EACD1" points="36.1798443 24 29 28.0172096 29 82.1018687 36.1798443 78.0932612"></polygon>
                    <polygon id="polygon24" stroke="#394D54" stroke-width="0.935907389" stroke-linejoin="round" fill="#0EACD1" points="21.1825526 33 14 37.0172096 14 91.1018687 21.1825526 87.0932612"></polygon>
                    <polygon id="polygon26" fill="#000000" opacity="0.12000002" points="47.8323198 71.5541924 47.826903 21.5182842 47.826903 21.5182842 44 23.4250968 44 21.2229433 49.8148343 18 49.8148343 70.4416461"></polygon>
                    <polygon id="polygon28" fill="#000000" opacity="0.12000002" points="32.9271121 79.5369881 32.9216954 29.5641624 32.9216954 29.5641624 29 31.5168531 29 29.2888932 34.8446262 26 34.8446262 78.5075961"></polygon>
                    <polygon id="polygon30" fill="#000000" opacity="0.12000002" points="18.9189871 87.5283859 18.9135703 37.5727646 18.9135703 37.575632 15 39.5254553 15 37.2888932 20.8310844 34 20.8310844 86.4903917"></polygon>
                </g>
            </g>
        </g>
    </g>
</svg>